PathFileType	4	(X/Y/Z)	RBDS001\RBDS001runT45.trc
DataRate	CameraRate	NumFrames	NumMarkers	Units	OrigDataRate	OrigDataStartFrame	OrigNumFrames
150.000000	150.000000	5	33	mm	150.000000	2250	4500
Frame#	Time	L.ASIS			L.Heel.Bottom			L.Heel.Lateral			L.Heel.Top			L.Iliac.Crest			L.MT1			L.MT5			L.PSIS			L.Shank.Bottom.Lateral			L.Shank.Bottom.Medial			L.Shank.Top.Lateral			L.Shank.Top.Medial			L.Thigh.Bottom.Lateral			L.Thigh.Bottom.Medial			L.Thigh.Top.Lateral			L.Thigh.Top.Medial			R.ASIS			R.ASY			R.Heel.Bottom			R.Heel.Lateral			R.Heel.Top			R.Iliac.Crest			R.MT1			R.MT5			R.PSIS			R.Shank.Bottom.Lateral			R.Shank.Bottom.Medial			R.Shank.Top.Lateral			R.Shank.Top.Medial			R.Thigh.Bottom.Lateral			R.Thigh.Bottom.Medial			R.Thigh.Top.Lateral			R.Thigh.Top.Medial			
		X1	Y1	Z1	X2	Y2	Z2	X3	Y3	Z3	X4	Y4	Z4	X5	Y5	Z5	X6	Y6	Z6	X7	Y7	Z7	X8	Y8	Z8	X9	Y9	Z9	X10	Y10	Z10	X11	Y11	Z11	X12	Y12	Z12	X13	Y13	Z13	X14	Y14	Z14	X15	Y15	Z15	X16	Y16	Z16	X17	Y17	Z17	X18	Y18	Z18	X19	Y19	Z19	X20	Y20	Z20	X21	Y21	Z21	X22	Y22	Z22	X23	Y23	Z23	X24	Y24	Z24	X25	Y25	Z25	X26	Y26	Z26	X27	Y27	Z27	X28	Y28	Z28	X29	Y29	Z29	X30	Y30	Z30	X31	Y31	Z31	X32	Y32	Z32	X33	Y33	Z33	

2251	15	2428.792457260469	1017.901997151248	904.5153589951188	1767.079265204272	632.1820851330722	976.0255567680356	1756.742036839141	604.5891267791537	931.8431247442246	1800.000112257862	599.6079935087083	968.812407665813	2381.597649132765	1097.097199854221	879.1839777663461	1663.485422790607	435.761443570688	1007.184417414023	1657.932869031303	478.7321304741675	908.2882892732986	2260.991205529363	1071.639046490595	974.2038442909068	1856.980047453801	533.8206529069229	906.5450422090614	1855.062571346765	573.5856691457971	939.7625099331651	1936.496381802025	543.2841912060621	894.7836176411091	1938.630234842736	584.1307668543191	929.8959888488521	2222.533724661493	632.060792239031	880.3895481651981	2187.640641106458	647.3921253880877	943.0420822959364	2232.791182530908	740.7984998430431	863.7809596131902	2202.948592646727	755.2293741658626	924.0387968686705	2417.018714699439	1025.72927892913	1107.170350293278	329453064.4558452	603749133.9626187	-953631831.666171	2504.75471483809	42.08558897063628	1031.99398382674	2537.961082187148	49.20807378522171	1075.193987877843	2514.241758219748	88.9353881387695	1041.964388115525	2359.502617837335	1093.790225211465	1149.475678406222	2720.354845111359	81.71450114124104	979.3143165898096	2709.079662622713	51.02192636557828	1084.507293116296	2261.160677172924	1068.311894555873	1050.08290115351	2567.972288596916	188.6752976433744	1098.563304807301	2523.240610334109	188.8989068974979	1066.788172929382	2551.632725108586	265.6363047961862	1118.931656327164	2509.072071480638	265.799455631453	1085.220892613238	2491.965292406437	623.9190298260397	1147.763778887956	2440.369189049042	597.3619920880801	1101.719628558743	2429.213977607988	713.408268699715	1163.446644729524	2379.271992912103	687.1667853982121	1121.7824371212	
2252	15.00666666666667	2428.363426690768	1012.802533177926	905.2099221753523	1790.423394628189	641.8899064993055	973.3471775967731	1777.935886436375	614.8504324489419	928.5586554282199	1821.187263102987	606.7825853169495	965.767537191878	2381.608471896674	1091.528471767635	878.3594481299168	1672.214040116369	451.5193668459584	1002.837061743521	1669.992183610624	495.6685263359071	904.114956489241	2259.949750816816	1065.704179651792	972.280156958327	1872.161864789933	539.0663918936726	903.3882797426335	1871.977455280512	578.8605420509755	936.7565510018778	1952.0378557078	545.0372568320505	891.9141081515969	1955.919648117015	585.7395681458656	927.1170986915788	2231.086421544682	622.8978739350558	879.3071996797762	2195.920518745077	636.8306361923193	942.1875471357714	2238.115999365608	731.9734007034476	863.1780156586823	2207.848385727098	745.2482978497465	923.5398814737837	2415.553086740103	1021.361864276586	1108.694371087702	329914990.9670114	604599900.5944058	-954975353.9398284	2481.138654192594	40.73159418571395	1027.03875768158	2513.88940919809	48.14386346660817	1070.451716359225	2491.855336327046	87.51613861239368	1035.890467287997	2357.356615573226	1088.866853451509	1148.893201746608	2698.763257844101	74.27532243870598	976.5771799411627	2685.145802042506	47.21212264546059	1082.342943954331	2259.280195227259	1062.92860501961	1048.334003012964	2550.860616949189	183.9302122605143	1093.970400542808	2506.38207917913	186.5091599484437	1062.091560237641	2538.049794289385	261.1840989108764	1115.117684963069	2495.670417614441	263.6652082329919	1081.338296620131	2489.45340084374	620.1291663442883	1146.145996987429	2438.076597363812	593.6875395374809	1099.970407343461	2426.56592065139	709.6059524815336	1161.825794661984	2376.777501945936	683.3610884626631	1120.103119167004	
2253	15.01333333333333	2427.662356854742	1007.622291740416	905.9828647519813	1813.660663106198	649.4476854620733	970.5737672336779	1799.458598479021	622.8555132035094	925.3035723337891	1842.582114770609	612.316146260137	962.7937278069019	2381.517075898928	1085.890746840846	877.7156016065013	1683.551088561656	464.5588431812315	998.6341390805591	1684.291446210328	509.5474935684035	899.9389440264011	2258.619816097835	1059.724505882468	970.6449327521569	1888.531762511072	543.0464894173756	900.3505924174056	1889.927029990603	582.8207370512475	933.8552238276498	1968.595092089558	545.8505769098074	889.1033229963133	1974.068663961016	586.3401904147861	924.405780181966	2240.278104563169	613.8111085139089	877.9123404727455	2204.554059827789	626.2781217109156	940.8139250643566	2243.940121336823	723.1394521912853	862.2258021458003	2213.007756521827	735.2072967105062	922.5442567694223	2413.942137873872	1016.69415057561	1110.298793703346	330377349.0414878	605451466.1005669	-956320137.5002537	2455.114696958376	39.55472918848504	1022.454955377716	2487.435425325833	47.62380004513771	1066.001022593132	2466.935595590187	86.34098921209535	1029.891325336966	2355.342532536672	1083.673193692816	1148.370485881136	2674.674048270592	67.45824453756596	973.8575800603016	2658.834056072696	44.39682815233286	1080.268472021852	2257.168711042185	1057.520911338782	1046.82575647092	2531.826414824512	179.4941031207571	1089.18071747645	2487.560403343741	184.6477626907033	1057.40711022401	2522.978416846114	256.9697100239417	1111.193033153527	2480.734816197261	261.9674301540166	1077.529484720362	2486.464735843252	616.0831575849422	1144.556046535683	2435.37754595972	589.9046954858331	1098.089937305974	2423.467446786806	705.563930308728	1160.331350855448	2373.905959740897	679.4435575921708	1118.366150970577	
2254	15.02	2426.649786467345	1002.495860419192	906.7759552484838	1836.309277924195	655.0297005000837	967.6404442376888	1820.887173383283	628.713765536206	922.060896493563	1863.807726478213	616.4131629430085	959.8469838873041	2381.172263179188	1080.312254845737	877.236915497778	1697.319431945779	474.636826984161	994.6643892597828	1700.520350876405	520.0812435564286	895.8346729076691	2256.961522759354	1053.837716851397	969.3352293179777	1905.946897561051	545.8361923647984	897.45420026571	1908.733669079589	585.5625154081622	931.0614873035505	1986.067895163915	545.8467228465053	886.3796358813697	1992.947828900531	586.0801077830096	921.7822175093775	2250.227589187431	604.9895688192828	876.1758777595819	2213.646246664835	615.8932509249822	938.8655137231534	2250.372783256702	714.4684175894745	860.8992384564502	2218.519867248475	725.2471701772075	921.000321241934	2412.159287780418	1011.875958218508	1111.883197825809	330840138.8807698	606303830.8560076	-957666182.9392115	2427.2300068739	38.55204487207081	1018.422343716715	2459.186639285929	47.57502228082674	1062.010485941242	2439.975224280679	85.39423380957493	1024.256010059132	2353.449420069904	1078.376587434296	1147.916393169589	2648.494187770462	61.59029425218002	971.2123464805609	2630.703092921718	42.60029306795107	1078.280602278063	2254.82653963448	1052.252820239743	1045.587677022353	2511.145259785671	175.4991393121802	1084.402098166076	2467.054669189257	183.3483496760143	1052.958846020528	2506.560629864095	253.0791484212049	1107.318584411425	2464.418468313445	260.6967768740313	1073.964774607018	2482.792119207686	611.7873911132774	1143.039064010919	2432.045057922815	586.0682305857753	1096.100816945699	2419.794259756221	701.3388898684852	1159.005314956371	2370.510590165292	675.5179677975907	1116.604175849988	
2255	15.02666666666667	2425.300406197839	997.5489968078938	907.5322973091022	1858.017395921354	658.8223730804945	964.5078735842866	1841.897108209919	632.567507958845	918.8208117954725	1884.584955599307	619.257617657485	956.8913264161906	2380.431496447939	1074.913008728233	876.889294715514	1713.280368937305	481.6022821985653	990.9935749688316	1718.342471777282	527.1055835952802	891.874227129672	2254.959765294216	1048.181946650914	968.3538017116905	1924.257914902866	547.5135949683324	894.7129891318928	1928.216761375717	587.1800199715187	928.3787140892049	2004.350270030318	545.1492422216994	883.7681664898207	2012.423629731446	585.1075162701771	919.2664197284433	2261.038165354883	596.6505177894123	874.0961014465486	2223.317367950277	605.8544123182833	936.3315287466374	2257.501238655527	706.1562036695271	859.2097420973524	2224.481390323492	715.5219951340824	918.9037863724712	2410.183339475337	1007.072784547901	1113.357747168198	331303360.6863536	607156995.2356333	-959013490.8484664	2398.0085905887	37.7300097721315	1015.066746655301	2429.691204356358	47.89654788269566	1058.610761933073	2411.472041552659	84.66313264978622	1019.239860656281	2351.629949998036	1073.158671384743	1147.535932872973	2620.651835844146	56.87342767212481	968.7324230826564	2601.276523422519	41.73350392924092	1076.412056816579	2252.269732679331	1047.283113112244	1044.619646732916	2489.089160779461	172.0380191970149	1079.86039095638	2445.151049385435	182.6090686078636	1048.964923580433	2488.931383254973	249.5695970230701	1103.665672371027	2446.876871701267	259.8209109659934	1070.804743185383	2478.268628643556	607.2844476584105	1141.625617398895	2427.87447865718	582.2394297832799	1094.055075968032	2415.460841125185	697.0211458046914	1157.863836132133	2366.468644839122	671.6975669289358	1114.863490039496	
